<mxfile host="app.diagrams.net" modified="2023-04-26T09:55:20.138Z" agent="Mozilla/5.0 (Windows NT 10.0; Win64; x64) AppleWebKit/537.36 (KHTML, like Gecko) Chrome/112.0.0.0 Safari/537.36" etag="iTlS9q1lJ9mAz_7SKDbI" version="21.2.1" type="github">
  <diagram name="第 1 页" id="IPRoEMp-fuJRhj8DFN1m">
    <mxGraphModel dx="798" dy="427" grid="1" gridSize="10" guides="1" tooltips="1" connect="1" arrows="1" fold="1" page="1" pageScale="1" pageWidth="827" pageHeight="1169" math="0" shadow="0">
      <root>
        <mxCell id="0" />
        <mxCell id="1" parent="0" />
        <mxCell id="ld9Qwx5qpbUsMiMYAhv9-1" value="C -&amp;gt; 汇编 -&amp;gt; ISA -&amp;gt; CPU&lt;br&gt;&lt;br&gt;汇编和ISA强相关, 由于不同的CPU的不同ISA, 所以C和C++的程序需要编写不同的代码来适应不同的CPU平台" style="text;html=1;strokeColor=none;fillColor=none;align=left;verticalAlign=middle;whiteSpace=wrap;rounded=0;" vertex="1" parent="1">
          <mxGeometry x="80" y="170" width="310" height="80" as="geometry" />
        </mxCell>
        <mxCell id="ld9Qwx5qpbUsMiMYAhv9-2" value="高级语言的出现都是为了解决C和C++指针的问题" style="text;html=1;strokeColor=none;fillColor=none;align=left;verticalAlign=middle;whiteSpace=wrap;rounded=0;" vertex="1" parent="1">
          <mxGeometry x="80" y="340" width="290" height="40" as="geometry" />
        </mxCell>
        <mxCell id="ld9Qwx5qpbUsMiMYAhv9-3" value="Java" style="text;html=1;strokeColor=none;fillColor=none;align=left;verticalAlign=middle;whiteSpace=wrap;rounded=0;" vertex="1" parent="1">
          <mxGeometry x="413" y="310" width="70" height="30" as="geometry" />
        </mxCell>
        <mxCell id="ld9Qwx5qpbUsMiMYAhv9-4" value="Rust" style="text;html=1;strokeColor=none;fillColor=none;align=left;verticalAlign=middle;whiteSpace=wrap;rounded=0;" vertex="1" parent="1">
          <mxGeometry x="410" y="360" width="70" height="30" as="geometry" />
        </mxCell>
        <mxCell id="ld9Qwx5qpbUsMiMYAhv9-5" value="第6期 - 第8节" style="rounded=0;whiteSpace=wrap;html=1;" vertex="1" parent="1">
          <mxGeometry x="120" y="50" width="510" height="50" as="geometry" />
        </mxCell>
      </root>
    </mxGraphModel>
  </diagram>
</mxfile>
